<?xml version="1.0" standalone="no"?>
<!DOCTYPE svg PUBLIC "-//W3C//DTD SVG 20010904//EN"
 "http://www.w3.org/TR/2001/REC-SVG-20010904/DTD/svg10.dtd">
<svg version="1.0" xmlns="http://www.w3.org/2000/svg"
 width="500.000000pt" height="500.000000pt" viewBox="0 0 500.000000 500.000000"
 preserveAspectRatio="xMidYMid meet">

<g transform="translate(0.000000,500.000000) scale(0.100000,-0.100000)"
fill="#000000" stroke="none">
<path d="M2270 4989 c-1285 -123 -2270 -1205 -2270 -2494 0 -1145 786 -2153
1895 -2429 229 -57 267 -61 610 -61 343 0 381 4 610 61 882 220 1585 917 1815
1799 35 135 61 295 64 400 2 55 2 80 0 55 -23 -275 -91 -554 -189 -783 l-37
-86 -35 20 c-19 11 -40 18 -47 15 -7 -3 -7 -5 2 -5 6 -1 12 -6 12 -11 0 -6
-11 -3 -25 6 -14 9 -25 21 -25 28 0 6 4 4 10 -4 5 -8 12 -11 16 -7 4 4 -11 25
-34 46 -23 22 -42 47 -42 55 0 13 -3 14 -19 4 -11 -7 -17 -18 -13 -27 5 -14 3
-14 -14 0 -10 9 -27 19 -36 22 -10 4 -18 13 -18 22 0 8 -18 33 -39 54 -35 35
-40 46 -46 107 -4 37 -5 101 -2 143 6 91 46 179 112 247 23 24 39 47 36 50 -3
3 2 10 12 15 9 6 17 15 17 22 0 7 -4 6 -10 -3 -8 -11 -12 -12 -18 -3 -5 7 -13
9 -22 3 -11 -7 -11 -11 -1 -24 16 -19 8 -21 -17 -5 -14 9 -25 8 -48 -5 l-29
-17 43 6 c25 3 42 1 42 -5 0 -12 -36 -50 -48 -50 -4 0 -12 -15 -17 -32 -8 -25
-18 -36 -44 -44 -23 -8 -40 -22 -50 -43 -8 -17 -19 -31 -24 -31 -5 0 -27 -20
-50 -45 -51 -55 -75 -61 -118 -30 -17 14 -36 22 -40 19 -5 -3 -14 6 -21 20 -6
14 -17 26 -23 26 -7 0 -17 18 -24 41 -9 31 -15 38 -25 30 -20 -16 -64 9 -77
44 -6 17 -14 78 -16 137 -4 85 -8 105 -19 101 -8 -3 -14 -9 -14 -14 0 -15 -32
-45 -66 -62 l-31 -16 -61 54 c-71 65 -99 119 -108 212 l-7 68 -14 -32 c-14
-34 -28 -42 -36 -20 -3 8 -7 7 -12 -5 -8 -20 51 -159 105 -243 91 -146 280
-559 292 -640 19 -132 21 -165 9 -179 -7 -8 -13 -44 -14 -81 -2 -61 -4 -65
-22 -60 -11 4 -31 8 -44 10 -30 4 -74 58 -82 100 -3 16 -10 44 -14 60 -7 29
-7 29 8 10 9 -11 17 -15 17 -9 0 20 -38 61 -67 72 -15 5 -61 15 -101 22 -64
11 -73 15 -69 31 5 17 3 18 -30 4 -50 -21 -53 -20 -53 21 l0 37 63 -7 c34 -4
70 -7 79 -7 10 0 20 -4 23 -10 4 -5 1 -9 -4 -9 -20 0 -11 -20 12 -29 54 -20
77 -22 77 -6 0 8 -8 23 -18 33 -29 29 -158 92 -190 92 -30 0 -42 14 -42 51 0
24 -1 24 -63 -10 -104 -59 -262 -110 -347 -114 -47 -2 -50 -4 -56 -33 -6 -31
-7 -31 -62 -32 -31 0 -72 6 -90 14 -19 8 -44 14 -56 14 -11 0 -34 7 -50 15
-16 8 -54 15 -88 15 -62 0 -101 14 -132 49 -11 12 -23 21 -29 21 -14 0 -165
116 -219 168 l-47 45 -50 -21 c-27 -12 -54 -22 -59 -22 -5 0 -19 33 -31 73
-12 39 -26 80 -31 89 -13 23 -13 31 0 23 6 -4 10 25 10 79 0 77 -3 90 -35 152
-19 37 -35 68 -35 70 0 1 14 -3 30 -9 25 -9 40 -8 79 6 59 21 61 21 61 2 0 -8
4 -15 10 -15 11 0 8 35 -3 46 -4 4 -7 15 -7 24 0 10 -6 23 -14 29 -8 7 -18 26
-21 42 -4 16 -11 29 -17 29 -6 0 -8 6 -5 14 3 8 -1 38 -9 68 -8 29 -21 74 -28
101 -7 26 -9 47 -5 47 5 0 11 -12 15 -27 3 -16 14 -50 25 -77 10 -27 19 -54
19 -60 0 -7 11 -34 24 -62 12 -27 26 -62 30 -79 7 -26 9 -27 17 -12 6 9 8 21
5 26 -3 4 -8 27 -11 51 -8 67 20 33 39 -48 14 -56 15 -78 7 -121 -1 -2 -8 2
-16 9 -9 7 -15 8 -15 2 0 -5 12 -17 26 -27 41 -27 104 -15 170 31 133 91 188
261 147 459 -17 85 -20 91 -51 104 -18 8 -32 18 -32 22 0 27 378 30 479 4 32
-8 74 -15 93 -15 76 0 171 -36 255 -96 23 -16 23 -16 12 16 -7 18 -9 56 -6 88
5 46 2 60 -15 85 -14 19 -23 50 -26 86 -2 31 -10 70 -18 88 -8 17 -14 56 -14
86 0 31 -4 58 -9 61 -4 3 -11 49 -14 103 -3 63 -12 110 -23 132 -13 27 -16 49
-11 113 4 43 13 93 21 111 8 18 25 60 39 94 43 110 159 256 213 269 39 9 55
23 50 43 -2 9 -7 46 -11 83 l-6 67 -202 -6 c-173 -4 -205 -3 -222 11 -19 15
-19 15 -1 16 15 0 16 3 6 15 -7 8 -17 15 -22 15 -5 0 -16 -7 -24 -15 -9 -8
-19 -15 -24 -15 -11 0 -20 37 -20 84 l0 39 -197 -6 c-108 -4 -230 -8 -272 -8
-56 -1 -68 -3 -46 -9 17 -4 48 -8 69 -9 22 0 37 -4 34 -7 -3 -3 -63 -6 -133
-8 -83 -1 -129 -6 -134 -14 -4 -7 -60 -14 -160 -18 -98 -4 -151 -3 -148 4 7
10 -81 11 -98 1 -5 -3 -35 -3 -65 1 -30 4 -49 8 -41 9 9 0 2 10 -17 24 -17 13
-29 27 -25 30 8 9 190 7 313 -2 52 -4 99 -4 103 -1 18 15 -659 30 -684 15 -4
-3 -105 -5 -223 -5 -119 0 -216 -4 -216 -8 0 -4 7 -16 15 -26 8 -11 15 -30 15
-42 0 -13 5 -26 10 -29 5 -3 10 -2 10 4 0 7 8 7 25 1 13 -5 73 -8 132 -6 131
4 153 -2 153 -45 0 -29 1 -30 31 -24 63 14 99 12 99 -6 0 -13 -6 -16 -21 -12
-18 5 -20 3 -14 -16 5 -15 2 -21 -9 -21 -9 0 -16 9 -16 20 0 11 -7 20 -15 20
-18 0 -18 -5 -4 -32 9 -17 17 -19 55 -13 44 6 44 6 44 -24 0 -21 5 -31 15 -31
10 0 15 -10 15 -30 0 -16 5 -30 10 -30 6 0 10 5 10 10 0 6 5 10 10 10 6 0 10
-9 10 -21 0 -12 5 -19 13 -16 6 2 11 12 9 22 -2 9 5 23 16 31 11 7 23 30 27
50 4 24 13 38 26 41 13 4 19 14 19 34 0 21 4 27 15 23 8 -4 15 -17 15 -30 0
-14 6 -27 14 -30 8 -3 12 -13 9 -23 -2 -10 3 -26 13 -36 10 -9 18 -25 19 -35
2 -24 24 -50 42 -50 11 0 13 -7 8 -30 -5 -25 -3 -30 12 -30 12 0 14 -3 6 -8
-16 -10 -5 -52 13 -52 8 0 14 -5 14 -11 0 -6 11 -25 24 -42 13 -18 27 -49 30
-69 4 -21 13 -44 21 -52 8 -8 15 -19 15 -25 0 -6 4 -11 10 -11 6 0 6 -9 0 -26
-7 -19 -7 -36 2 -60 14 -38 5 -54 -20 -36 -9 7 -24 15 -32 18 -8 3 -22 9 -30
13 -30 16 -78 22 -85 12 -3 -6 -15 -11 -25 -11 -12 0 -20 -8 -22 -22 -4 -27
-50 -37 -75 -16 -13 11 -18 9 -31 -10 -8 -12 -22 -22 -31 -22 -25 0 -126 -67
-145 -95 -9 -14 -23 -25 -31 -25 -17 0 -20 -16 -5 -25 15 -9 0 -35 -31 -51
-16 -8 -29 -23 -29 -33 0 -10 -7 -24 -15 -31 -14 -12 -14 -15 0 -30 11 -12 12
-19 3 -28 -7 -7 -18 -12 -25 -12 -14 0 -17 -29 -14 -120 1 -30 2 -64 3 -75 0
-11 2 -14 5 -7 6 14 33 16 33 2 0 -5 10 -10 23 -10 14 0 18 -3 10 -8 -10 -6
-10 -16 -1 -45 l11 -37 58 0 c49 0 59 3 64 20 3 11 11 20 16 20 5 0 9 7 9 15
0 21 -16 19 -38 -6 l-19 -20 -5 25 c-4 17 -1 23 9 19 9 -3 13 3 13 21 0 24 -2
26 -21 16 -11 -6 -25 -10 -31 -8 -6 2 8 12 31 22 22 11 41 22 41 25 0 3 -11
11 -25 18 -22 10 -25 9 -26 -10 0 -12 -3 -16 -6 -9 -4 10 -8 10 -19 1 -8 -7
-16 -10 -19 -8 -4 4 43 78 70 111 8 10 21 34 30 54 l15 35 57 -7 c32 -5 119
-8 193 -9 l135 0 0 -30 c0 -18 5 -29 12 -28 9 2 10 -4 3 -22 -9 -23 -8 -25 10
-15 30 16 35 32 14 48 -18 13 -18 14 4 7 21 -6 23 -4 17 15 -6 18 -4 21 12 17
10 -3 41 -8 68 -12 105 -14 173 -64 201 -148 18 -54 9 -97 -21 -97 -9 0 -15
-9 -15 -25 0 -25 14 -33 25 -15 3 5 13 6 21 3 11 -4 14 -13 9 -30 -3 -14 -1
-31 6 -39 7 -8 9 -17 5 -21 -6 -7 -36 28 -46 55 -4 8 -20 -6 -44 -40 -39 -53
-117 -122 -168 -148 -16 -7 -28 -17 -28 -21 0 -10 -63 1 -70 11 -3 4 -16 11
-29 15 -24 7 -24 8 10 20 19 7 43 16 53 20 16 7 18 5 13 -8 -3 -9 -2 -17 3
-17 6 0 10 10 10 21 0 12 8 28 18 35 26 20 37 16 17 -6 -19 -21 -5 -29 18 -10
69 57 137 127 153 156 l19 36 -30 24 c-16 13 -25 24 -18 24 6 0 9 8 6 19 -3
10 2 32 11 49 13 25 13 31 2 35 -7 3 -18 1 -24 -5 -6 -6 -15 -3 -24 11 -12 17
-21 20 -46 15 -21 -4 -32 -3 -32 5 0 6 5 11 12 11 9 0 9 3 1 11 -9 9 -18 4
-37 -17 -14 -16 -26 -35 -26 -41 0 -7 -7 -13 -16 -13 -11 0 -14 5 -10 16 4 10
1 14 -6 11 -7 -2 -13 -15 -13 -28 0 -14 -6 -24 -15 -24 -8 0 -20 -11 -27 -25
-8 -19 -12 -20 -12 -7 -1 9 -6 17 -12 17 -6 0 -9 -9 -6 -20 4 -17 1 -19 -19
-14 -18 5 -24 2 -24 -10 0 -9 -4 -16 -8 -16 -12 0 -33 -50 -27 -61 4 -5 2 -9
-4 -9 -6 0 -8 -7 -4 -16 5 -13 2 -15 -15 -10 -17 6 -19 3 -15 -12 3 -12 -5
-29 -19 -43 -23 -23 -27 -49 -7 -49 4 0 6 7 2 16 -13 34 21 7 42 -32 25 -49
71 -109 62 -79 -6 18 -5 18 12 -2 11 -13 30 -23 44 -23 18 0 27 -7 31 -25 4
-14 11 -25 16 -25 6 0 10 -19 10 -42 0 -33 -3 -40 -11 -28 -8 11 -12 12 -16 3
-2 -7 -12 -13 -20 -13 -11 0 -13 4 -6 13 6 6 13 23 16 37 5 21 2 25 -19 26
-19 2 -32 -8 -52 -37 -23 -33 -31 -39 -55 -34 -44 8 -78 36 -72 62 3 12 0 23
-8 26 -14 5 -57 -13 -57 -23 0 -4 -11 -5 -25 -2 -20 3 -24 1 -19 -12 4 -12 2
-15 -9 -10 -36 13 -25 32 21 38 78 11 86 23 74 103 -10 70 -4 99 24 116 11 6
8 16 -12 47 -15 22 -31 40 -35 40 -5 0 -9 7 -9 15 0 8 3 15 6 15 3 0 12 -7 20
-15 22 -22 27 -20 64 28 19 23 40 46 47 50 7 4 13 15 13 22 0 8 5 15 11 15 6
0 24 14 41 30 16 17 28 30 26 30 -2 0 -18 -4 -35 -9 -21 -6 -35 -6 -39 0 -3 6
-12 8 -20 5 -7 -3 -16 -1 -19 3 -7 13 20 21 36 10 15 -10 59 -12 59 -3 0 19
-24 44 -42 44 -17 0 -19 2 -7 16 7 8 21 13 30 11 16 -4 48 18 38 27 -2 2 -40
0 -85 -4 -45 -3 -113 -5 -153 -3 -73 4 -101 -4 -133 -37 -15 -16 -15 -20 -3
-30 12 -10 16 -9 21 4 3 9 10 16 16 16 5 0 6 -5 2 -11 -3 -6 0 -16 7 -21 10
-6 3 -8 -21 -5 -27 3 -40 -1 -56 -19 -12 -12 -20 -25 -17 -27 7 -8 43 5 43 15
0 6 7 7 16 4 8 -3 12 -2 9 4 -12 20 12 9 35 -15 19 -20 21 -27 10 -40 -18 -22
2 -63 35 -71 14 -3 25 -10 25 -15 0 -14 -28 -11 -33 4 -3 7 -6 5 -6 -6 -1 -10
7 -21 16 -24 34 -13 63 -55 63 -91 0 -31 -2 -34 -25 -28 -18 5 -25 2 -25 -9 0
-8 -7 -15 -15 -15 -8 0 -15 -5 -15 -10 0 -6 -13 -8 -30 -5 -20 4 -30 1 -30 -7
0 -9 -3 -9 -10 2 -7 12 -12 12 -29 -4 -19 -18 -26 -15 -22 8 1 5 -5 6 -14 2
-9 -3 -19 -6 -22 -6 -3 0 0 -6 6 -14 9 -11 7 -15 -11 -19 -13 -4 -27 -2 -32 3
-22 22 -28 8 -7 -14 26 -27 24 53 18 -702 l-2 -251 -33 -53 c-26 -42 -33 -62
-31 -96 2 -24 0 -46 -4 -50 -8 -8 -11 9 -7 41 2 16 0 17 -14 6 -13 -11 -16
-11 -16 2 0 8 7 17 15 21 8 3 15 11 14 18 0 10 -2 10 -6 1 -8 -20 -23 -15 -23
8 0 11 -4 17 -10 14 -6 -4 -10 8 -10 29 0 20 -5 36 -11 36 -6 0 -10 19 -8 48
1 26 -1 54 -4 62 -10 24 -11 44 -3 61 4 9 3 34 -3 57 -7 33 -6 44 4 50 8 4 15
28 17 55 2 26 8 47 13 47 6 0 3 5 -5 10 -13 8 -13 11 0 25 11 10 14 28 12 56
-3 28 -7 37 -13 28 -12 -20 -11 1 5 83 11 57 11 66 -1 56 -23 -18 -28 0 -10
37 22 46 23 72 2 55 -13 -11 -15 -6 -15 35 0 69 -9 50 -15 -31 -3 -38 -7 -100
-10 -139 -3 -38 -10 -176 -15 -305 -11 -231 -14 -293 -45 -855 -28 -509 -42
-725 -49 -732 -3 -3 -6 7 -7 23 -1 28 -1 28 -10 -6 -4 -19 -6 -40 -4 -47 2 -7
0 -15 -5 -18 -6 -4 -11 16 -11 47 -1 29 -4 43 -6 31 -2 -13 -9 -23 -14 -23 -5
0 -6 -12 -3 -26 5 -18 3 -25 -4 -20 -6 3 -13 0 -16 -6 -7 -16 1 96 10 141 5
25 4 32 -4 27 -7 -4 -12 -20 -12 -36 0 -38 -20 -50 -21 -13 0 15 -3 22 -6 16
-2 -7 -9 -13 -15 -13 -7 0 -9 21 -5 62 5 52 4 57 -7 37 -8 -16 -21 -24 -40
-25 -16 -1 -35 -9 -43 -19 -24 -33 -16 54 11 121 31 76 40 174 15 174 -6 0 -8
-9 -4 -20 4 -13 2 -20 -8 -20 -10 0 -17 -28 -27 -97 -8 -54 -15 -102 -15 -108
-1 -5 -3 -18 -3 -27 -1 -11 -7 -15 -17 -12 -10 4 -15 0 -15 -11 0 -9 -5 -13
-11 -9 -9 5 -10 -1 -5 -22 l6 -29 -17 27 c-17 28 -43 38 -43 17 0 -5 5 -7 10
-4 6 3 10 -1 10 -9 0 -16 -46 -56 -64 -56 -6 1 -35 23 -64 50 l-54 48 16 104
c9 57 24 159 35 228 11 69 22 145 24 170 3 25 11 70 18 100 17 76 18 182 1
188 -7 2 -13 -2 -11 -9 4 -34 -2 -59 -15 -59 -8 0 -16 6 -19 13 -2 7 -8 8 -13
3 -5 -5 -4 -11 4 -13 17 -6 15 -52 -3 -59 -8 -4 -15 -13 -15 -21 0 -8 5 -11
12 -7 8 5 9 2 5 -9 -4 -11 2 -25 16 -38 19 -19 19 -21 3 -15 -15 5 -17 4 -7
-8 13 -16 4 -69 -10 -60 -5 3 -9 -7 -9 -22 0 -27 -1 -27 -15 -8 -13 16 -14 16
-9 2 3 -10 1 -18 -5 -18 -6 0 -10 -9 -8 -19 1 -11 -2 -20 -8 -20 -5 0 -9 12
-8 26 2 29 -11 20 -21 -14 -9 -28 21 -36 48 -14 17 15 18 15 15 -4 -3 -15 -12
-20 -34 -20 -21 0 -34 -7 -42 -24 -7 -12 -10 -27 -7 -32 3 -5 -1 -9 -8 -9 -10
0 -10 -2 1 -9 11 -7 5 -18 -29 -50 -24 -23 -48 -41 -52 -41 -4 0 -8 -10 -8
-22 0 -21 -2 -21 -32 9 l-32 32 18 83 c10 46 22 101 27 123 35 157 52 245 55
275 3 33 3 32 -11 -10 -13 -40 -14 -41 -10 -10 l4 35 -15 -29 c-12 -21 -19
-25 -27 -17 -13 13 -28 15 -26 4 1 -5 0 -21 -1 -38 -2 -22 -4 -25 -7 -10 -3
11 -10 23 -17 28 -8 5 -8 9 0 15 6 4 14 18 18 32 7 24 7 24 -8 5 -8 -11 -20
-25 -26 -32 -5 -7 -10 -17 -10 -23 0 -5 -6 -10 -12 -11 -7 0 -27 -20 -45 -44
-27 -37 -30 -45 -17 -56 17 -14 19 -85 1 -96 -23 -14 -35 -11 -40 13 -2 13 0
21 4 18 5 -3 9 0 9 5 0 6 -4 11 -10 11 -5 0 -10 8 -10 18 0 14 -2 15 -10 2
-16 -25 -13 6 9 85 11 39 38 144 61 235 23 91 59 227 81 302 21 75 39 142 39
148 0 7 -8 10 -20 7 -15 -4 -20 0 -20 14 0 24 -20 25 -21 2 -1 -10 -1 -21 0
-25 0 -5 -4 -8 -9 -8 -6 0 -10 6 -10 13 0 6 -7 3 -16 -8 -15 -19 -15 -19 -9
10 5 29 5 29 -7 7 -8 -17 -9 -31 -2 -51 11 -27 8 -51 -5 -51 -5 0 -6 11 -3 25
2 15 0 25 -7 25 -6 0 -11 -7 -11 -16 0 -8 -4 -13 -9 -10 -5 3 -12 -1 -15 -10
-10 -26 -7 -34 11 -27 16 6 16 4 -1 -15 -11 -12 -23 -22 -27 -22 -12 0 -27 64
-18 70 5 3 13 37 19 75 5 39 23 108 38 155 59 177 77 250 65 268 -8 13 -4 26
18 57 27 39 62 138 53 148 -3 3 -7 18 -8 33 -3 25 -7 29 -31 26 -22 -3 -26 0
-20 16 4 15 1 20 -12 18 -10 0 -23 -8 -30 -16 -17 -21 -16 -13 7 53 29 82 98
208 126 231 13 11 42 21 64 22 44 3 48 -4 31 -64 -6 -18 -6 -30 -1 -27 5 3 11
1 15 -5 4 -6 11 -8 16 -5 5 4 12 -1 15 -9 3 -9 14 -16 24 -16 48 0 49 -5 24
-118 -13 -59 -23 -110 -24 -114 0 -8 71 11 87 24 7 5 17 7 23 3 6 -4 21 1 32
12 l21 18 -7 -54 c-13 -96 -13 -106 -9 -93 2 6 9 12 14 12 5 0 9 5 9 11 0 6 7
27 16 46 14 27 22 33 42 31 33 -4 61 -53 56 -99 -3 -29 -2 -31 8 -15 13 23 25
91 78 436 22 146 47 301 55 345 25 141 35 229 29 270 -2 22 -5 52 -6 68 0 15
-6 27 -13 27 -18 0 -25 62 -19 167 3 52 1 116 -5 145 -6 29 -12 98 -12 152 -1
110 -7 109 -38 -9 -11 -44 -41 -150 -66 -235 -25 -85 -59 -207 -75 -270 -17
-63 -41 -153 -54 -200 l-23 -85 -49 -7 c-27 -3 -82 -7 -121 -7 -84 -1 -78 5
-133 -146 -18 -49 -47 -126 -65 -170 -53 -126 -127 -329 -128 -345 0 -8 -3
-17 -7 -20 -9 -7 -71 -169 -80 -210 -4 -19 -8 -29 -9 -22 -1 11 -10 9 -36 -7
-19 -11 -35 -15 -35 -9 0 7 -6 6 -16 -2 -8 -8 -14 -9 -13 -4 1 5 0 12 -1 17
-6 17 -8 29 -9 57 -1 30 -15 40 -24 17 -2 -7 0 -35 6 -62 10 -48 8 -56 -36
-167 -26 -64 -47 -120 -47 -125 -1 -4 -9 -25 -19 -47 l-18 -38 -6 48 c-20 147
-28 313 -22 429 12 253 69 550 145 758 27 74 34 85 44 72 10 -14 22 -15 59
-10 26 4 47 12 47 17 0 6 -7 51 -16 100 -19 103 -21 98 68 248 244 410 621
755 1053 965 132 64 306 133 347 138 22 2 23 -2 30 -87 4 -49 10 -91 12 -93
21 -21 1032 -46 1147 -29 l46 7 -5 52 c-3 43 0 56 18 77 18 21 20 21 14 5 -4
-11 -8 -46 -9 -79 l-1 -58 120 6 c67 3 139 6 161 6 35 0 38 2 23 13 -15 12
-12 14 27 13 25 -1 45 -4 45 -8 0 -4 20 -7 45 -6 l45 2 -6 51 c-5 47 -4 49 10
31 9 -11 16 -32 16 -46 0 -15 2 -29 5 -31 2 -3 35 -2 72 2 73 8 97 0 210 -70
l46 -29 -89 -12 c-213 -28 -225 -31 -220 -48 3 -10 6 -44 8 -78 3 -52 5 -60
21 -56 20 5 23 -13 4 -25 -11 -6 -12 -24 -7 -76 4 -37 10 -70 13 -73 2 -3 23
3 45 12 42 16 46 22 56 85 14 79 130 169 239 185 58 8 78 -4 230 -135 493
-426 787 -998 857 -1666 l9 -90 -4 100 c-13 314 -143 722 -332 1041 -497 837
-1431 1315 -2393 1223z m870 -295 l35 -14 -34 5 c-18 3 -42 5 -53 5 -10 0 -16
5 -13 10 8 13 22 12 65 -6z m-1386 -186 c-14 -6 -41 -6 -75 0 l-54 10 75 0
c56 -1 70 -3 54 -10z m-397 -34 c-3 -3 -12 -4 -19 -1 -8 3 -5 6 6 6 11 1 17
-2 13 -5z m-202 -24 c3 -5 1 -10 -4 -10 -6 0 -11 5 -11 10 0 6 2 10 4 10 3 0
8 -4 11 -10z m335 -54 c0 -3 -4 -8 -10 -11 -5 -3 -10 -1 -10 4 0 6 5 11 10 11
6 0 10 -2 10 -4z m1578 -221 l17 -160 75 -6 75 -5 -72 -2 c-70 -2 -73 -3 -73
-26 0 -14 5 -37 10 -53 9 -26 9 -27 -5 -9 -8 11 -15 32 -15 47 0 15 -4 30 -9
33 -5 3 -7 15 -4 25 3 10 -5 91 -16 179 -23 173 -24 201 -10 162 5 -14 17 -97
27 -185z m-1354 118 c-5 -5 -12 -12 -16 -18 -4 -6 -8 -2 -8 8 0 9 7 17 17 17
9 0 12 -3 7 -7z m1333 -289 c-3 -3 -12 -4 -19 -1 -8 3 -5 6 6 6 11 1 17 -2 13
-5z m-1202 -762 c-3 -3 -11 0 -18 7 -9 10 -8 11 6 5 10 -3 15 -9 12 -12z m-28
-44 c-3 -7 -5 -2 -5 12 0 14 2 19 5 13 2 -7 2 -19 0 -25z m83 12 c0 -5 -4 -10
-10 -10 -5 0 -10 5 -10 10 0 6 5 10 10 10 6 0 10 -4 10 -10z m-155 -9 c3 -5 1
-12 -5 -16 -5 -3 -10 1 -10 9 0 18 6 21 15 7z m-232 -61 c-3 -12 -8 -19 -11
-16 -5 6 5 36 12 36 2 0 2 -9 -1 -20z m778 -87 c-5 -10 -31 -38 -57 -63 -26
-25 -43 -38 -39 -30 5 8 17 21 26 27 10 7 27 29 39 48 22 36 49 51 31 18z
m-1311 -220 c0 -10 -5 -25 -10 -33 -16 -23 -32 8 -17 32 15 23 27 23 27 1z
m704 -5 c23 -37 29 -68 14 -68 -24 0 -46 24 -53 58 -5 25 -3 32 9 32 9 0 22
-10 30 -22z m71 12 c3 -5 2 -10 -4 -10 -5 0 -13 5 -16 10 -3 6 -2 10 4 10 5 0
13 -4 16 -10z m-131 -95 c11 -8 28 -13 38 -9 10 3 18 0 18 -6 0 -6 -4 -8 -10
-5 -5 3 -10 1 -10 -4 0 -6 -13 -11 -30 -11 -16 0 -30 4 -30 9 0 5 -3 16 -6 25
-8 20 5 20 30 1z m-30 -41 c3 -8 2 -12 -4 -9 -6 3 -10 10 -10 16 0 14 7 11 14
-7z m232 4 c5 -8 2 -9 -11 -4 -15 5 -16 4 -5 -9 7 -9 18 -14 24 -12 16 5 38
-64 25 -79 -7 -8 -6 -14 1 -19 6 -3 8 -10 5 -15 -3 -5 -1 -11 5 -15 5 -3 10
-14 10 -24 0 -14 -15 -21 -72 -34 -40 -8 -76 -13 -80 -11 -10 6 -10 -23 -2
-93 5 -39 11 -53 25 -56 20 -5 27 -37 8 -37 -5 0 -8 4 -5 9 9 13 -20 21 -32 9
-16 -16 -33 1 -31 30 5 69 -1 112 -16 112 -12 0 -13 4 -6 18 6 11 6 24 -1 35
-5 10 -11 32 -13 48 -4 28 -2 30 23 27 24 -3 27 -7 26 -40 -1 -43 1 -44 44
-23 l31 16 -20 34 c-13 21 -16 36 -9 40 7 4 7 12 0 26 -8 14 -20 18 -45 16
-40 -2 -41 -4 -18 -29 9 -10 12 -18 7 -18 -13 0 -44 37 -37 44 4 3 1 6 -5 6
-7 0 -12 5 -12 10 0 6 23 10 51 10 36 0 58 6 76 20 29 23 48 25 59 8z m-1342
-17 c3 -5 -3 -11 -14 -14 -20 -5 -35 5 -23 17 9 9 31 7 37 -3z m1755 -49 c1
-7 -3 -10 -9 -7 -5 3 -10 18 -9 33 0 24 1 25 9 7 5 -11 9 -26 9 -33z m-39 18
c0 -5 -4 -10 -10 -10 -5 0 -10 5 -10 10 0 6 5 10 10 10 6 0 10 -4 10 -10z
m-1774 -20 c8 0 14 5 14 11 0 5 5 7 11 3 14 -8 -4 -27 -28 -29 -10 0 -24 -4
-31 -9 -15 -9 -15 -1 0 24 7 11 14 16 16 10 2 -5 10 -10 18 -10z m1699 10 c3
-5 1 -10 -4 -10 -6 0 -11 5 -11 10 0 6 2 10 4 10 3 0 8 -4 11 -10z m-1864
-210 c-13 -11 -28 -20 -35 -20 -6 0 0 9 14 20 33 26 52 25 21 0z m1659 -3 c0
-18 -24 -38 -82 -71 -55 -30 -62 -22 -16 20 17 16 28 23 24 17 -4 -8 -1 -13 8
-13 9 0 16 8 16 18 0 21 18 42 37 42 7 0 13 -6 13 -13z m-1587 -77 c3 -11 1
-20 -4 -20 -12 0 -39 -62 -49 -110 l-8 -35 -1 42 c0 23 4 45 9 48 6 3 10 15
10 25 0 26 18 70 29 70 5 0 11 -9 14 -20z m1652 -1 c4 -5 -1 -20 -12 -31 -21
-24 -115 -69 -153 -73 -17 -1 -26 -9 -28 -24 -3 -18 1 -21 35 -21 46 0 138 25
171 46 13 9 28 14 34 12 15 -5 -50 -78 -70 -78 -13 0 -12 3 4 15 10 8 14 15 8
15 -6 0 -20 -8 -32 -17 -47 -40 -58 -48 -72 -50 -8 0 -26 -3 -40 -5 -17 -2
-25 2 -25 12 -1 23 -15 40 -40 50 -38 15 -20 43 46 74 33 15 67 25 75 22 7 -3
13 0 11 6 -2 11 58 58 74 58 4 0 11 -5 14 -11z m-1640 -109 c-10 -11 -21 -17
-24 -14 -3 3 3 12 13 20 28 20 32 17 11 -6z m1380 0 c3 -5 1 -10 -4 -10 -6 0
-11 5 -11 10 0 6 2 10 4 10 3 0 8 -4 11 -10z m14 -125 c0 -46 -1 -48 -12 -27
-11 18 -14 82 -7 112 5 19 19 -44 19 -85z m206 -25 c-3 -5 -11 -10 -16 -10 -6
0 -7 5 -4 10 3 6 11 10 16 10 6 0 7 -4 4 -10z m-44 -106 c7 -9 16 -39 20 -68
4 -28 10 -60 14 -72 5 -17 0 -22 -33 -33 -22 -8 -46 -10 -52 -6 -17 11 -83 10
-100 0 -7 -5 -30 -11 -49 -15 -20 -4 -40 -8 -46 -10 -5 -1 -24 -2 -41 -1 -28
1 -30 3 -27 34 2 17 4 38 5 45 1 6 11 12 22 13 12 0 15 3 8 6 -6 2 -9 10 -5
15 6 11 -12 8 -52 -8 -32 -13 66 87 100 102 46 20 219 19 236 -2z m-1641 -98
c0 -2 -16 -6 -35 -8 -19 -2 -35 0 -35 4 0 4 16 8 35 8 19 0 35 -2 35 -4z m-24
-257 c-9 -19 -15 -29 -16 -22 0 18 20 66 25 61 3 -3 -1 -20 -9 -39z m1267 24
c-4 -10 -2 -14 4 -10 5 4 19 0 29 -8 16 -11 19 -27 20 -112 0 -54 -3 -107 -7
-118 -7 -17 -8 -16 -8 8 -1 25 -14 36 -24 20 -2 -5 -2 -2 0 6 2 8 -2 18 -9 23
-11 6 -11 8 0 8 9 0 11 12 6 49 -4 32 -2 51 5 55 6 4 9 12 5 17 -3 5 -10 6
-16 3 -6 -4 -6 1 1 14 16 29 13 41 -4 18 -13 -17 -14 -16 -11 10 4 33 4 34 11
34 2 0 1 -7 -2 -17z m1757 13 c0 -2 -9 -6 -20 -9 -11 -3 -18 -1 -14 4 5 9 34
13 34 5z m-1785 -126 c3 -5 1 -10 -4 -10 -6 0 -11 5 -11 10 0 6 2 10 4 10 3 0
8 -4 11 -10z m-885 -171 c0 -5 -4 -9 -10 -9 -5 0 -10 7 -10 16 0 8 5 12 10 9
6 -3 10 -10 10 -16z m247 -1 c-3 -8 -6 -5 -6 6 -1 11 2 17 5 13 3 -3 4 -12 1
-19z m713 -29 c0 -22 -4 -38 -9 -34 -8 4 -9 24 -2 68 0 4 3 7 6 7 3 0 5 -18 5
-41z m-33 -1 c-3 -8 -6 -5 -6 6 -1 11 2 17 5 13 3 -3 4 -12 1 -19z m-687 -3
c0 -8 -4 -15 -10 -15 -5 0 -10 7 -10 15 0 8 5 15 10 15 6 0 10 -7 10 -15z
m1911 -101 c18 -21 -11 -18 -40 5 l-25 19 27 -5 c14 -3 32 -11 38 -19z m206
-36 c-3 -8 -6 -5 -6 6 -1 11 2 17 5 13 3 -3 4 -12 1 -19z m-77 -82 c0 -11 -79
-66 -95 -66 -4 0 -19 -8 -33 -18 -30 -20 -53 -25 -129 -26 -80 -1 -90 26 -10
30 27 2 41 7 39 14 -2 8 3 10 14 6 10 -4 22 1 30 11 11 15 16 16 33 5 19 -11
21 -10 21 8 0 19 13 25 53 22 22 -2 58 28 50 42 -4 6 1 5 10 -3 9 -7 17 -19
17 -25z m-114 -3 c-10 -10 -19 5 -10 18 6 11 8 11 12 0 2 -7 1 -15 -2 -18z
m-343 -70 c-7 -2 -19 -2 -25 0 -7 3 -2 5 12 5 14 0 19 -2 13 -5z m15 -31 c13
-17 15 -80 3 -122 -6 -20 -15 -26 -50 -31 -31 -4 -44 -2 -48 8 -3 7 -16 13
-29 13 -27 0 -29 7 -12 47 6 15 10 33 9 39 -1 6 11 25 26 42 22 26 32 30 57
25 17 -3 37 -13 44 -21z m42 -8 c0 -8 -4 -12 -10 -9 -5 3 -10 10 -10 16 0 5 5
9 10 9 6 0 10 -7 10 -16z m40 -20 c0 -2 -7 -4 -15 -4 -8 0 -15 4 -15 10 0 5 7
7 15 4 8 -4 15 -8 15 -10z m-1840 -20 c0 -8 -5 -12 -10 -9 -6 4 -8 11 -5 16 9
14 15 11 15 -7z m400 -28 c0 -3 -4 -8 -10 -11 -5 -3 -10 -1 -10 4 0 6 5 11 10
11 6 0 10 -2 10 -4z m1758 -118 c-8 -12 -21 -25 -29 -28 -8 -4 -25 -12 -37
-19 -13 -7 -42 -15 -65 -17 -22 -3 -43 -6 -46 -7 -3 0 -37 3 -76 7 -70 8 -128
33 -139 61 -8 21 22 19 59 -3 19 -12 59 -21 105 -25 67 -5 83 -3 150 23 93 35
96 35 78 8z m289 11 l52 3 7 -37 c4 -21 2 -46 -4 -58 -6 -12 -14 -32 -17 -44
-6 -20 -22 -28 -48 -24 -5 1 -17 -9 -26 -21 l-18 -22 -8 23 c-7 22 -11 23 -56
18 -47 -6 -71 -23 -109 -77 -3 -4 -15 -10 -27 -14 -18 -6 -22 -2 -27 31 -10
67 -5 111 12 118 14 5 14 7 2 15 -8 6 -10 10 -4 10 6 0 23 11 38 25 15 14 39
25 54 26 15 0 45 9 67 18 22 10 45 16 50 12 6 -3 33 -4 62 -2z m577 -123 l28
-55 -18 -46 c-21 -56 -50 -95 -70 -95 -13 0 -13 3 0 23 8 12 17 37 21 54 3 18
12 31 18 30 21 -4 19 51 -4 100 -13 26 -25 53 -28 58 -2 6 2 4 11 -2 8 -7 27
-37 42 -67z m-45 10 c-3 -3 -11 5 -18 17 -13 21 -12 21 5 5 10 -10 16 -20 13
-22z m-2652 -58 c-3 -7 -5 -2 -5 12 0 14 2 19 5 13 2 -7 2 -19 0 -25z m2773
-135 c-10 -16 -11 -15 -6 7 3 14 6 32 7 40 1 8 4 5 6 -7 2 -12 -1 -30 -7 -40z
m-2503 15 c-3 -8 -6 -5 -6 6 -1 11 2 17 5 13 3 -3 4 -12 1 -19z m2458 -114
c-20 -38 -33 -57 -30 -42 5 26 57 119 63 113 2 -2 -13 -34 -33 -71z"/>
<path d="M1783 2677 c-8 -11 -9 -17 -4 -44 0 -5 15 -9 32 -10 24 -2 30 1 25
13 -3 9 -6 18 -6 20 0 3 -4 2 -10 -1 -5 -3 -10 1 -10 9 0 20 -16 28 -27 13z"/>
<path d="M1780 2569 c7 -11 14 -19 16 -16 7 7 -7 37 -17 37 -6 0 -5 -9 1 -21z"/>
<path d="M2342 998 c-14 -14 -16 -28 -3 -28 5 0 11 9 14 20 6 23 5 24 -11 8z"/>
<path d="M2390 920 c0 -5 5 -10 10 -10 6 0 10 5 10 10 0 6 -4 10 -10 10 -5 0
-10 -4 -10 -10z"/>
<path d="M3405 4550 c-27 -4 -121 -11 -208 -15 -87 -5 -159 -11 -161 -14 -1
-3 -1 -24 1 -47 l5 -40 81 2 c45 1 142 5 216 9 102 6 132 5 126 -5 -4 -6 -25
-10 -49 -9 -62 4 -88 0 -81 -11 3 -5 2 -10 -4 -10 -5 0 -12 6 -14 13 -3 7 -6
4 -6 -6 -1 -10 -6 -15 -11 -12 -6 4 -7 12 -4 18 5 8 3 8 -7 0 -15 -15 -49 -17
-49 -3 0 5 -6 7 -14 4 -8 -3 -12 -12 -9 -20 4 -11 26 -14 92 -14 47 0 104 3
126 7 36 6 38 7 15 14 l-25 7 28 1 c15 1 27 6 27 12 0 6 9 9 19 6 17 -4 19 0
15 32 -11 99 -7 96 -109 81z m-8 -136 c-3 -3 -12 -4 -19 -1 -8 3 -5 6 6 6 11
1 17 -2 13 -5z"/>
<path d="M2280 4510 c0 -5 9 -10 21 -10 11 0 17 5 14 10 -3 6 -13 10 -21 10
-8 0 -14 -4 -14 -10z"/>
<path d="M2370 4499 c0 -5 5 -7 10 -4 6 3 10 8 10 11 0 2 -4 4 -10 4 -5 0 -10
-5 -10 -11z"/>
<path d="M3160 4405 c0 -7 11 -15 25 -17 26 -5 34 5 13 19 -21 13 -38 12 -38
-2z"/>
<path d="M1450 4299 c0 -5 5 -7 10 -4 6 3 10 8 10 11 0 2 -4 4 -10 4 -5 0 -10
-5 -10 -11z"/>
<path d="M1560 4240 c0 -8 5 -22 10 -30 9 -13 10 -13 10 0 0 8 -5 22 -10 30
-9 13 -10 13 -10 0z"/>
<path d="M1655 3350 c-3 -5 3 -10 14 -10 12 0 21 5 21 10 0 6 -6 10 -14 10 -8
0 -18 -4 -21 -10z"/>
<path d="M2100 3303 c0 -9 7 -9 30 -2 17 6 30 13 30 15 0 2 -13 3 -30 2 -16
-1 -30 -8 -30 -15z"/>
<path d="M1580 3239 c0 -5 5 -7 10 -4 6 3 10 8 10 11 0 2 -4 4 -10 4 -5 0 -10
-5 -10 -11z"/>
<path d="M1660 3202 c0 -18 12 -42 21 -42 14 0 10 26 -6 40 -9 8 -15 8 -15 2z"/>
<path d="M2300 3135 c-9 -11 -7 -16 8 -24 28 -15 49 10 22 26 -14 10 -21 9
-30 -2z"/>
<path d="M1615 3120 c-3 -5 -1 -10 4 -10 6 0 11 5 11 10 0 6 -2 10 -4 10 -3 0
-8 -4 -11 -10z"/>
<path d="M1402 3080 c0 -14 2 -19 5 -12 2 6 2 18 0 25 -3 6 -5 1 -5 -13z"/>
<path d="M1630 3040 c0 -5 5 -10 10 -10 6 0 10 5 10 10 0 6 -4 10 -10 10 -5 0
-10 -4 -10 -10z"/>
<path d="M1695 3030 c3 -5 11 -10 16 -10 6 0 7 5 4 10 -3 6 -11 10 -16 10 -6
0 -7 -4 -4 -10z"/>
<path d="M1404 2920 c0 -63 1 -89 3 -57 2 31 2 83 0 115 -2 31 -3 5 -3 -58z"/>
<path d="M2305 3020 c-3 -5 -1 -10 4 -10 6 0 11 5 11 10 0 6 -2 10 -4 10 -3 0
-8 -4 -11 -10z"/>
<path d="M1650 2963 c0 -5 5 -15 10 -23 8 -12 10 -11 10 8 0 12 -4 22 -10 22
-5 0 -10 -3 -10 -7z"/>
<path d="M1590 2945 c0 -8 3 -15 6 -15 3 0 12 7 20 15 14 13 13 15 -5 15 -12
0 -21 -6 -21 -15z"/>
<path d="M1486 2927 c3 -10 9 -15 12 -12 3 3 0 11 -7 18 -10 9 -11 8 -5 -6z"/>
<path d="M1850 2791 c0 -5 5 -13 10 -16 6 -3 10 -2 10 4 0 5 -4 13 -10 16 -5
3 -10 2 -10 -4z"/>
<path d="M3430 2781 c0 -5 5 -13 10 -16 6 -3 10 -2 10 4 0 5 -4 13 -10 16 -5
3 -10 2 -10 -4z"/>
<path d="M1920 2761 c0 -12 5 -21 10 -21 6 0 10 6 10 14 0 8 -4 18 -10 21 -5
3 -10 -3 -10 -14z"/>
<path d="M540 2754 c0 -8 5 -12 10 -9 6 3 10 10 10 16 0 5 -4 9 -10 9 -5 0
-10 -7 -10 -16z"/>
<path d="M1390 2750 c0 -5 7 -10 16 -10 8 0 12 5 9 10 -3 6 -10 10 -16 10 -5
0 -9 -4 -9 -10z"/>
<path d="M3666 2745 c4 -8 10 -15 14 -15 4 0 10 7 14 15 4 10 -1 15 -14 15
-13 0 -18 -5 -14 -15z"/>
<path d="M1875 2710 c10 -11 20 -18 23 -15 7 6 -18 35 -31 35 -5 0 -2 -9 8
-20z"/>
<path d="M160 2611 c0 -5 5 -13 10 -16 6 -3 10 -2 10 4 0 5 -4 13 -10 16 -5 3
-10 2 -10 -4z"/>
<path d="M4085 2559 c-38 -19 -74 -54 -75 -73 0 -4 18 7 39 25 22 19 50 42 63
51 30 23 22 22 -27 -3z"/>
<path d="M1192 2400 c0 -19 2 -27 5 -17 2 9 2 25 0 35 -3 9 -5 1 -5 -18z"/>
<path d="M2251 2414 c0 -11 3 -14 6 -6 3 7 2 16 -1 19 -3 4 -6 -2 -5 -13z"/>
<path d="M1183 2285 c0 -33 2 -45 4 -27 2 18 2 45 0 60 -2 15 -4 0 -4 -33z"/>
<path d="M4607 2263 c-16 -15 -6 -33 18 -33 26 0 34 15 13 23 -7 3 5 3 26 0
28 -5 37 -3 32 5 -8 13 -78 17 -89 5z"/>
<path d="M1172 2160 c0 -19 2 -27 5 -17 2 9 2 25 0 35 -3 9 -5 1 -5 -18z"/>
<path d="M522 2080 c0 -14 2 -19 5 -12 2 6 2 18 0 25 -3 6 -5 1 -5 -13z"/>
<path d="M1159 2043 c-1 -5 -3 -19 -4 -33 -2 -14 -6 -54 -10 -90 -8 -77 11
-65 21 14 5 36 12 50 25 53 11 3 19 12 19 19 0 15 -21 15 -33 -1 -4 -5 -5 2
-1 18 4 17 2 27 -5 27 -6 0 -12 -3 -12 -7z"/>
<path d="M1182 1963 c4 -20 38 -31 38 -13 0 6 -4 8 -10 5 -5 -3 -10 1 -10 9 0
9 -5 16 -11 16 -6 0 -9 -8 -7 -17z"/>
<path d="M1186 1913 c-6 -14 -5 -15 5 -6 7 7 10 15 7 18 -3 3 -9 -2 -12 -12z"/>
<path d="M1176 1855 c-3 -8 -1 -15 4 -15 6 0 10 7 10 15 0 8 -2 15 -4 15 -2 0
-6 -7 -10 -15z"/>
<path d="M1150 1759 c0 -6 9 -13 20 -16 23 -6 25 -16 9 -44 -9 -18 -8 -19 9
-10 26 14 46 40 38 48 -4 4 -11 1 -17 -7 -7 -11 -8 -8 -4 10 5 23 3 26 -24 28
-18 1 -31 -3 -31 -9z"/>
<path d="M1187 1663 c-10 -9 -9 -23 2 -23 5 0 11 7 15 15 5 15 -5 20 -17 8z"/>
<path d="M1112 1585 c0 -16 2 -22 5 -12 2 9 2 23 0 30 -3 6 -5 -1 -5 -18z"/>
<path d="M1151 1574 c0 -11 3 -14 6 -6 3 7 2 16 -1 19 -3 4 -6 -2 -5 -13z"/>
<path d="M1187 1583 c-4 -3 -7 -13 -7 -22 1 -13 3 -13 11 2 11 19 8 33 -4 20z"/>
<path d="M601 1560 c0 -14 -10 -33 -21 -43 -21 -17 -26 -42 -12 -51 14 -8 44
60 39 90 -4 27 -4 27 -6 4z"/>
<path d="M717 1553 c-10 -9 -9 -23 2 -23 5 0 11 7 15 15 5 15 -5 20 -17 8z"/>
<path d="M861 1544 c0 -11 3 -14 6 -6 3 7 2 16 -1 19 -3 4 -6 -2 -5 -13z"/>
<path d="M721 1494 c-12 -15 -21 -32 -21 -38 1 -11 24 15 41 47 14 25 3 21
-20 -9z"/>
<path d="M1121 1473 c-1 -6 -4 -20 -7 -30 -5 -17 -5 -17 6 0 6 10 9 23 6 30
-3 9 -5 9 -5 0z"/>
<path d="M710 1429 c0 -5 -4 -7 -10 -4 -15 9 -12 -1 4 -14 11 -9 15 -7 19 9 3
11 1 20 -4 20 -5 0 -9 -5 -9 -11z"/>
<path d="M1091 1344 c0 -11 3 -14 6 -6 3 7 2 16 -1 19 -3 4 -6 -2 -5 -13z"/>
<path d="M1150 1310 c0 -5 -10 -10 -23 -10 l-24 0 16 -49 c8 -28 19 -47 24
-44 5 3 8 -8 6 -23 -1 -16 -1 -67 1 -114 2 -60 4 -75 9 -50 3 19 4 75 0 125
-3 49 -3 95 0 100 10 18 10 75 0 75 -5 0 -9 -4 -9 -10z"/>
<path d="M1076 1259 c-9 -45 -7 -89 3 -89 4 0 9 27 10 60 1 66 -3 76 -13 29z"/>
<path d="M1180 1000 c0 -5 5 -10 10 -10 6 0 10 5 10 10 0 6 -4 10 -10 10 -5 0
-10 -4 -10 -10z"/>
<path d="M1223 965 c0 -27 2 -38 4 -22 2 15 2 37 0 50 -2 12 -4 0 -4 -28z"/>
<path d="M1180 958 c0 -15 -7 -34 -16 -42 -12 -13 -13 -22 -6 -44 l10 -27 1
26 c1 14 9 34 19 45 15 16 16 23 5 44 l-13 25 0 -27z"/>
<path d="M1110 910 c0 -5 5 -10 10 -10 6 0 10 5 10 10 0 6 -4 10 -10 10 -5 0
-10 -4 -10 -10z"/>
<path d="M1221 894 c0 -11 3 -14 6 -6 3 7 2 16 -1 19 -3 4 -6 -2 -5 -13z"/>
<path d="M1212 845 c0 -16 2 -22 5 -12 2 9 2 23 0 30 -3 6 -5 -1 -5 -18z"/>
<path d="M1155 830 c-3 -5 -1 -10 4 -10 6 0 11 5 11 10 0 6 -2 10 -4 10 -3 0
-8 -4 -11 -10z"/>
</g>
</svg>
